<svg width="60" height="60" viewBox="0 0 60 60" fill="none" xmlns="http://www.w3.org/2000/svg">
<path d="M13.0089 37.4215H6.46289V17.9995L7.35089 17.9875C10.7949 17.9515 14.3169 18.7315 16.1109 19.2055C17.1069 19.4695 17.7549 20.4355 17.6169 21.4615C15.8649 34.1935 13.5369 36.8875 13.2729 37.1575L13.0089 37.4275V37.4215ZM8.26289 35.6215H12.1749C12.7329 34.7095 14.4609 31.2055 15.8349 21.2155C15.8529 21.0955 15.7749 20.9815 15.6549 20.9455C14.1069 20.5375 11.2029 19.8835 8.26289 19.7935V35.6215Z" fill="white"/>
<path d="M54.0236 37.4213H47.4776L47.2136 37.1513C46.9556 36.8873 44.6216 34.1873 42.8696 21.4553C42.7256 20.4353 43.3736 19.4633 44.3756 19.1993C46.1696 18.7313 49.6856 17.9513 53.1356 17.9813L54.0236 17.9933V37.4213ZM48.3176 35.6213H52.2236V19.7933C49.2776 19.8833 46.3796 20.5373 44.8316 20.9453C44.7116 20.9753 44.6396 21.0893 44.6516 21.2153C46.0196 31.1693 47.7416 34.6853 48.3176 35.6273V35.6213Z" fill="white"/>
<path d="M26.3524 21.6426H16.7344V23.4426H26.3524V21.6426Z" fill="white"/>
<path d="M30.1372 47.3223C29.1472 47.3223 27.8992 47.0463 26.4172 46.1703C21.6412 43.3503 13.5412 35.1843 13.1992 34.8363L14.4772 33.5703C14.5612 33.6543 22.7572 41.9163 27.3292 44.6223C30.1132 46.2663 31.5592 45.1683 31.6192 45.1203L32.7772 46.4943C32.7172 46.5483 31.7872 47.3223 30.1312 47.3223H30.1372Z" fill="white"/>
<path d="M33.8408 47.0571C33.0008 47.0571 32.3708 46.6791 32.2868 46.6251L32.1428 46.5111L26.7188 41.2431L27.9728 39.9531L33.3128 45.1371C33.4448 45.1971 33.7988 45.3351 34.1588 45.2091C34.5848 45.0591 34.9688 44.5611 35.2748 43.7691L36.9548 44.4111C36.4388 45.7491 35.6888 46.5951 34.7108 46.9191C34.4107 47.0211 34.1168 47.0571 33.8468 47.0571H33.8408Z" fill="white"/>
<path d="M37.3022 44.9883C36.6482 44.9883 36.0842 44.8263 35.7002 44.6343L35.5562 44.5623L30.4922 39.1263L31.8122 37.9023L36.6362 43.0863C37.0682 43.2423 38.4902 43.5363 39.7862 41.5263L41.2982 42.4983C40.0502 44.4363 38.5202 44.9943 37.3022 44.9943V44.9883Z" fill="white"/>
<path d="M41.2447 42.6309C40.5187 42.6309 39.8767 42.3249 39.4687 41.9649L33.5347 35.9049L34.8187 34.6449L40.6807 40.6329C40.9387 40.8429 41.4607 41.0589 42.1207 40.3449C42.8767 39.5349 42.3247 38.6289 42.1207 38.3469L30.9127 28.6989L28.6747 29.2809C27.7927 30.4869 25.7647 32.1069 23.0407 31.2309C22.0447 30.9129 21.6667 30.2349 21.5227 29.7309C20.8747 27.4209 24.0307 23.5929 24.6667 22.8489C24.8227 22.6809 27.8167 19.5309 31.1587 19.6149C34.2187 19.6689 43.3087 23.5269 44.3347 23.9649L43.6267 25.6209C40.9267 24.4629 33.4267 21.4569 31.1287 21.4149C31.1107 21.4149 31.0867 21.4149 31.0687 21.4149C28.5547 21.4149 26.0347 24.0309 26.0107 24.0549C24.5047 25.8129 23.0047 28.3209 23.2627 29.2449C23.2807 29.3109 23.3167 29.4309 23.5987 29.5209C25.9687 30.2829 27.2947 28.1289 27.3487 28.0389L27.5407 27.7209L31.3807 26.7249L43.4827 37.1589C44.1427 37.9629 44.9827 39.9249 43.4467 41.5749C42.7207 42.3489 41.9467 42.6309 41.2447 42.6309Z" fill="white"/>
<path d="M47.1626 35.3652L42.7969 37.7109L43.6489 39.2965L48.0145 36.9508L47.1626 35.3652Z" fill="white"/>
</svg>
