<svg width="60" height="60" viewBox="0 0 60 60" fill="none" xmlns="http://www.w3.org/2000/svg">
<path d="M30 40.4877L20.916 35.2437V24.7557L30 19.5117L39.084 24.7557V35.2437L30 40.4877ZM22.716 34.2057L30 38.4117L37.284 34.2057V25.7937L30 21.5877L22.716 25.7937V34.2057Z" fill="white"/>
<path d="M47.6402 27.3541L40.9922 23.5141V15.8341L47.6402 11.9941L54.2882 15.8341V23.5141L47.6402 27.3541ZM42.7922 22.4761L47.6402 25.2781L52.4882 22.4761V16.8781L47.6402 14.0761L42.7922 16.8781V22.4761Z" fill="white"/>
<path d="M47.6402 48.444L40.9922 44.604V36.924L47.6402 33.084L54.2882 36.924V44.604L47.6402 48.444ZM42.7922 43.566L47.6402 46.368L52.4882 43.566V37.968L47.6402 35.166L42.7922 37.968V43.566Z" fill="white"/>
<path d="M12.7613 27.3541L6.11328 23.5141V15.8341L12.7613 11.9941L19.4093 15.8341V23.5141L12.7613 27.3541ZM7.91328 22.4761L12.7613 25.2781L17.6093 22.4761V16.8781L12.7613 14.0761L7.91328 16.8781V22.4761Z" fill="white"/>
<path d="M30.0008 18.0479L24.7148 14.9939V8.89189L30.0008 5.83789L35.2868 8.89189V14.9939L30.0008 18.0479ZM26.5148 13.9559L30.0008 15.9659L33.4868 13.9559V9.92989L30.0008 7.91989L26.5148 9.92989V13.9559Z" fill="white"/>
<path d="M30.0008 54.1612L24.7148 51.1072V45.0052L30.0008 41.9512L35.2868 45.0052V51.1072L30.0008 54.1612ZM26.5148 50.0692L30.0008 52.0792L33.4868 50.0692V46.0432L30.0008 44.0332L26.5148 46.0432V50.0692Z" fill="white"/>
<path d="M12.7613 48.444L6.11328 44.604V36.924L12.7613 33.084L19.4093 36.924V44.604L12.7613 48.444ZM7.91328 43.566L12.7613 46.368L17.6093 43.566V37.968L12.7613 35.166L7.91328 37.968V43.566Z" fill="white"/>
<path d="M18.5159 38.3465C18.2219 38.3465 17.9279 38.2025 17.7599 37.9325C17.4899 37.5125 17.6159 36.9605 18.0299 36.6905L25.6559 31.8065C26.0759 31.5365 26.6339 31.6625 26.8979 32.0825C27.1679 32.5025 27.0419 33.0545 26.6279 33.3245L19.0019 38.2085C18.8519 38.3045 18.6839 38.3525 18.5159 38.3525V38.3465Z" fill="white"/>
<path d="M41.8865 38.3461C41.7245 38.3461 41.5565 38.3041 41.4065 38.2081L33.6485 33.3241C33.2285 33.0601 33.1025 32.5021 33.3665 32.0821C33.6305 31.6621 34.1885 31.5361 34.6085 31.8001L42.3665 36.6841C42.7865 36.9481 42.9125 37.5061 42.6485 37.9261C42.4745 38.1961 42.1865 38.3461 41.8865 38.3461Z" fill="white"/>
<path d="M38.1832 26.1788C37.8832 26.1788 37.5832 26.0288 37.4152 25.7528C37.1572 25.3268 37.2892 24.7748 37.7092 24.5168L45.3892 19.7948C45.8092 19.5308 46.3672 19.6688 46.6252 20.0888C46.8832 20.5148 46.7512 21.0668 46.3312 21.3248L38.6512 26.0468C38.5072 26.1368 38.3392 26.1788 38.1832 26.1788Z" fill="white"/>
<path d="M21.8152 26.1783C21.6532 26.1783 21.4852 26.1303 21.3352 26.0403L13.8712 21.3183C13.4512 21.0543 13.3252 20.4963 13.5892 20.0763C13.8532 19.6563 14.4112 19.5303 14.8312 19.7943L22.2952 24.5163C22.7152 24.7803 22.8412 25.3383 22.5772 25.7583C22.4032 26.0283 22.1152 26.1783 21.8152 26.1783Z" fill="white"/>
<path d="M29.9996 25.7335C29.5016 25.7335 29.0996 25.3315 29.0996 24.8335V17.0035C29.0996 16.5055 29.5016 16.1035 29.9996 16.1035C30.4976 16.1035 30.8996 16.5055 30.8996 17.0035V24.8335C30.8996 25.3315 30.4976 25.7335 29.9996 25.7335Z" fill="white"/>
<path d="M29.9996 46.5008C29.5016 46.5008 29.0996 46.0988 29.0996 45.6008V39.4508C29.0996 38.9528 29.5016 38.5508 29.9996 38.5508C30.4976 38.5508 30.8996 38.9528 30.8996 39.4508V45.6008C30.8996 46.0988 30.4976 46.5008 29.9996 46.5008Z" fill="white"/>
<path d="M29.9996 35.8983C29.5016 35.8983 29.0996 35.4963 29.0996 34.9983V29.4723L33.9476 26.7663C34.3796 26.5263 34.9316 26.6763 35.1716 27.1143C35.4116 27.5463 35.2616 28.0983 34.8236 28.3383L30.8996 30.5283V35.0043C30.8996 35.5023 30.4976 35.9043 29.9996 35.9043V35.8983Z" fill="white"/>
<path d="M29.9993 30.9005C29.8433 30.9005 29.6873 30.8585 29.5433 30.7745L25.3973 28.3265C24.9713 28.0745 24.8273 27.5225 25.0793 27.0965C25.3313 26.6705 25.8833 26.5265 26.3093 26.7785L30.4553 29.2265C30.8813 29.4785 31.0253 30.0305 30.7733 30.4565C30.6053 30.7385 30.3053 30.9005 29.9993 30.9005Z" fill="white"/>
</svg>
