<svg width="60" height="60" viewBox="0 0 60 60" fill="none" xmlns="http://www.w3.org/2000/svg">
<path d="M35.7896 54.0664H6.10157V53.0284C6.09557 40.0924 12.9596 29.5684 21.3956 29.5684C29.8316 29.5684 36.6956 40.0924 36.6956 53.0284V54.0184L35.7956 54.0664H35.7896ZM7.90157 52.2664H34.8836C34.6196 40.6504 28.6676 31.3684 21.3956 31.3684C14.1236 31.3684 8.15357 40.6744 7.90157 52.2664Z" fill="white"/>
<path d="M20.8979 25.7098C16.7759 25.7098 13.4219 22.3558 13.4219 18.2338C13.4219 14.1118 16.7759 10.7578 20.8979 10.7578C25.0199 10.7578 28.3739 14.1118 28.3739 18.2338C28.3739 22.3558 25.0199 25.7098 20.8979 25.7098ZM20.8979 12.5638C17.7719 12.5638 15.2219 15.1078 15.2219 18.2398C15.2219 21.3718 17.7659 23.9158 20.8979 23.9158C24.0299 23.9158 26.5739 21.3718 26.5739 18.2398C26.5739 15.1078 24.0299 12.5638 20.8979 12.5638Z" fill="white"/>
<path d="M53.9889 13.8417H31.2969V6.0957H53.9949V13.8417H53.9889ZM33.0909 12.0417H52.1889V7.8957H33.0909V12.0417Z" fill="white"/>
<path d="M53.9883 24.3788H32.6523V16.6328H53.9883V24.3788ZM34.4523 22.5788H52.1883V18.4328H34.4523V22.5788Z" fill="white"/>
<path d="M53.9873 34.9198H35.7773V27.1738H53.9873V34.9198ZM37.5773 33.1198H52.1873V28.9738H37.5773V33.1198Z" fill="white"/>
</svg>
