<svg width="60" height="60" viewBox="0 0 60 60" fill="none" xmlns="http://www.w3.org/2000/svg">
<path d="M14.19 36.1977L12.75 23.3397L25.392 21.9297L26.832 34.7877L14.196 36.1977H14.19ZM14.742 24.9297L15.78 34.2117L24.84 33.1977L23.802 23.9157L14.742 24.9297Z" fill="white"/>
<path d="M29.1841 34.518L27.7441 21.66L40.3801 20.25L41.8201 33.108L29.1841 34.518ZM29.7361 23.25L30.7741 32.532L39.8341 31.518L38.7961 22.236L29.7361 23.25Z" fill="white"/>
<path d="M12.5767 21.7563L11.1367 8.89828L23.7727 7.48828L25.2127 20.3463L12.5707 21.7563H12.5767ZM13.1287 10.4823L14.1667 19.7643L23.2267 18.7503L22.1887 9.46828L13.1287 10.4823Z" fill="white"/>
<path d="M27.5709 20.0766L26.1309 7.21859L38.7669 5.80859L40.2069 18.6666L27.5709 20.0766ZM28.1229 8.80859L29.1609 18.0906L38.2209 17.0766L37.1829 7.79459L28.1229 8.80859Z" fill="white"/>
<path d="M27.2704 51.8883C25.5244 51.8883 24.3004 51.0183 24.0064 50.7783L7.45844 40.5543C6.59444 39.9483 5.30444 38.4063 6.30044 36.6783C7.23644 35.0523 8.86244 35.1663 9.75044 35.6463L19.0864 39.9603C19.2124 39.7023 19.3804 39.4683 19.5904 39.2523C20.9584 37.8663 23.7784 37.8543 26.2684 37.8423C26.8024 37.8423 27.3124 37.8423 27.7804 37.8183C29.5444 37.7523 29.9764 37.5003 31.0324 36.8823C31.6504 36.5223 32.4244 36.0723 33.6844 35.5143C36.8404 34.1163 38.1784 34.4943 38.7184 34.8843C42.3664 36.4563 44.8864 36.7443 44.9104 36.7443L45.6904 36.8283L45.9604 48.1443L37.1524 48.3903C36.4024 48.6423 32.3524 49.9983 29.8624 51.2463C28.9204 51.7143 28.0444 51.8883 27.2764 51.8883H27.2704ZM8.50244 37.1223C8.25044 37.1223 8.02844 37.2723 7.85444 37.5783C7.43444 38.3043 8.34044 38.9823 8.44244 39.0543L25.1104 49.3623C25.1764 49.4163 26.8144 50.7543 29.0464 49.6323C31.9084 48.2043 36.5104 46.6983 36.7024 46.6383L36.8284 46.5963L44.1064 46.3923L43.9204 38.4063C42.8224 38.2023 40.6504 37.6863 37.8724 36.4803L37.6444 36.3483C37.4464 36.3003 36.5884 36.1863 34.4044 37.1523C33.2404 37.6683 32.5144 38.0883 31.9324 38.4303C30.7624 39.1143 30.0544 39.5283 27.8404 39.6063C27.3604 39.6243 26.8264 39.6243 26.2684 39.6303C24.3424 39.6423 21.7024 39.6543 20.8624 40.5063C20.6764 40.6923 20.5984 40.9143 20.5984 41.2203L20.6104 42.6423L8.88644 37.2303C8.74244 37.1583 8.61044 37.1223 8.48444 37.1223H8.50244Z" fill="white"/>
<path d="M22.3505 44.946C20.8445 44.946 20.2385 44.58 19.7705 43.992C19.7585 43.974 19.7465 43.962 19.7345 43.95C19.4945 43.794 18.9785 43.362 18.8105 41.316L20.6045 41.166C20.6465 41.694 20.7605 42.306 20.8565 42.54C21.0065 42.66 21.1025 42.786 21.1745 42.876C21.2645 42.99 21.4205 43.182 22.5725 43.152C24.6665 43.098 32.2325 42.9 32.2325 42.9L32.2805 44.7C32.2805 44.7 24.7205 44.898 22.6205 44.952C22.5245 44.952 22.4345 44.952 22.3445 44.952L22.3505 44.946Z" fill="white"/>
<path d="M46.8005 52.158C46.1285 52.158 45.4985 51.906 45.0065 51.444C44.5025 50.964 44.2145 50.316 44.1965 49.626L43.8485 35.91C43.8125 34.476 44.9525 33.282 46.3865 33.24L51.0545 33.12C51.7685 33.102 52.4105 33.354 52.9145 33.834C53.4185 34.314 53.7065 34.962 53.7245 35.652L54.0725 49.368C54.1085 50.802 52.9685 51.996 51.5345 52.038L46.8665 52.158C46.8665 52.158 46.8185 52.158 46.8005 52.158ZM51.1265 34.92H51.1085L46.4405 35.04C45.9965 35.052 45.6485 35.418 45.6605 35.862L46.0085 49.578C46.0085 49.794 46.1045 49.992 46.2545 50.142C46.4105 50.292 46.6205 50.37 46.8305 50.364L51.4985 50.244C51.9425 50.232 52.2905 49.866 52.2785 49.422L51.9305 35.706C51.9305 35.49 51.8345 35.292 51.6845 35.142C51.5345 34.998 51.3365 34.92 51.1325 34.92H51.1265Z" fill="white"/>
</svg>
