<svg width="60" height="60" viewBox="0 0 60 60" fill="none" xmlns="http://www.w3.org/2000/svg">
<path d="M11.2809 22.975H5.88086V6.04297H33.9309V12.901H11.2809V22.975ZM7.68086 21.175H9.48086V11.101H32.1309V7.84297H7.68086V21.175Z" fill="white"/>
<path d="M37.9985 30.8996H9.48047V11.0996H37.9985V30.8996ZM11.2805 29.0996H36.1985V12.8996H11.2805V29.0996Z" fill="white"/>
<path d="M54.0967 54.0668H24.7207V47.1008H48.8827V37.1348H54.1027V54.0668H54.0967ZM26.5207 52.2668H52.2967V38.9348H50.6767V48.9008H26.5207V52.2668Z" fill="white"/>
<path d="M50.6758 48.9002H21.1738V29.5742H50.6758V48.9062V48.9002ZM22.9738 47.1002H48.8758V31.3682H22.9738V47.1002Z" fill="white"/>
<path d="M44.909 26.327V22.223H40.373V16.043H44.909V11.873L54.101 19.103L44.909 26.333V26.327ZM42.173 20.423H46.709V22.619L51.191 19.097L46.709 15.575V17.843H42.173V20.423Z" fill="white"/>
<path d="M15.192 47.4541L6 40.2241L15.192 32.9941V37.0981H19.728V43.2781H15.192V47.4481V47.4541ZM8.91 40.2241L13.392 43.7461V41.4781H17.928V38.8981H13.392V36.7021L8.91 40.2241Z" fill="white"/>
</svg>
