<svg width="60" height="60" viewBox="0 0 60 60" fill="none" xmlns="http://www.w3.org/2000/svg">
<path d="M30.1136 54.0657H30.1016C29.9156 54.0657 29.7656 54.0117 29.6696 53.9697C18.6296 50.5017 11.0696 41.8077 7.80558 28.8297C5.35757 19.0977 6.16157 10.5177 6.19757 10.1577L6.31157 9.0177L7.39157 9.3957C14.4416 11.8617 24.4256 8.1177 28.1876 6.7077C28.9916 6.4077 29.4356 6.2397 29.7296 6.1617C29.8496 6.1137 29.9936 6.0957 30.1136 6.0957C30.2456 6.0957 30.3776 6.1137 30.4976 6.1617C30.7916 6.2397 31.2356 6.4077 32.0396 6.7077C35.8016 8.1177 45.7976 11.8617 52.8416 9.3957L53.9216 9.0177L54.0356 10.1577C54.0716 10.5177 54.8696 19.0917 52.4216 28.8297C49.1576 41.8077 41.5976 50.5017 30.5576 53.9697C30.4616 54.0117 30.3056 54.0657 30.1256 54.0657H30.1136ZM7.91357 11.4357C7.63757 17.3337 7.57758 45.0597 30.1076 52.2177C52.6556 45.0537 52.5896 17.3277 52.3076 11.4357C44.7836 13.4037 35.1416 9.7917 31.3976 8.3937C30.8696 8.1957 30.3596 8.0037 30.1076 7.9257C29.8496 8.0037 29.3456 8.1957 28.8176 8.3937C25.0796 9.7977 15.4436 13.4037 7.91957 11.4357H7.91357Z" fill="white"/>
<path d="M38.6391 42.6231L37.1751 42.1371C33.4251 40.8891 30.9051 38.6151 29.6751 35.3571H22.2531C18.7791 35.3571 15.9531 32.5311 15.9531 29.0571V22.1691C15.9531 18.6951 18.7791 15.8691 22.2531 15.8691H38.0631C41.5371 15.8691 44.3631 18.6951 44.3631 22.1691V29.0571C44.3631 32.4351 41.6871 35.2011 38.3451 35.3511C37.7751 38.1531 38.3331 41.0751 38.3451 41.1051L38.6451 42.6171L38.6391 42.6231ZM22.2531 17.6751C19.7691 17.6751 17.7531 19.6911 17.7531 22.1751V29.0631C17.7531 31.5471 19.7691 33.5631 22.2531 33.5631H30.9711L31.1691 34.1931C31.9971 36.8151 33.7071 38.6931 36.3651 39.8991C36.2391 38.4771 36.1971 36.2991 36.7671 34.2231L36.9471 33.5631H38.0631C40.5471 33.5631 42.5631 31.5471 42.5631 29.0631V22.1751C42.5631 19.6911 40.5471 17.6751 38.0631 17.6751H22.2531Z" fill="white"/>
<path d="M24.2088 27.4019C25.2161 27.4019 26.0328 26.5853 26.0328 25.5779C26.0328 24.5705 25.2161 23.7539 24.2088 23.7539C23.2014 23.7539 22.3848 24.5705 22.3848 25.5779C22.3848 26.5853 23.2014 27.4019 24.2088 27.4019Z" fill="white"/>
<path d="M30.1599 27.4019C31.1673 27.4019 31.9839 26.5853 31.9839 25.5779C31.9839 24.5705 31.1673 23.7539 30.1599 23.7539C29.1526 23.7539 28.3359 24.5705 28.3359 25.5779C28.3359 26.5853 29.1526 27.4019 30.1599 27.4019Z" fill="white"/>
<path d="M36.1072 27.4019C37.1146 27.4019 37.9312 26.5853 37.9312 25.5779C37.9312 24.5705 37.1146 23.7539 36.1072 23.7539C35.0998 23.7539 34.2832 24.5705 34.2832 25.5779C34.2832 26.5853 35.0998 27.4019 36.1072 27.4019Z" fill="white"/>
</svg>
