<svg width="60" height="60" viewBox="0 0 60 60" fill="none" xmlns="http://www.w3.org/2000/svg">
<path d="M36.7679 23.8499H22.3559L22.3379 22.9079C22.3379 18.7799 25.7759 15.4199 30.0059 15.4199C34.2359 15.4199 37.6739 18.7799 37.6739 22.9079V22.9679L37.6379 23.8319L36.7739 23.8439L36.7679 23.8499ZM24.1979 22.0499H35.8019C35.3819 19.3259 32.9399 17.2199 29.9999 17.2199C27.0599 17.2199 24.6299 19.3199 24.1979 22.0499Z" fill="white"/>
<path d="M30.0002 14.5141C27.6542 14.5141 25.7402 12.6061 25.7402 10.2541C25.7402 7.90214 27.6482 5.99414 30.0002 5.99414C32.3522 5.99414 34.2602 7.90214 34.2602 10.2541C34.2602 12.6061 32.3522 14.5141 30.0002 14.5141ZM30.0002 7.80014C28.6442 7.80014 27.5402 8.90414 27.5402 10.2601C27.5402 11.6161 28.6442 12.7201 30.0002 12.7201C31.3562 12.7201 32.4602 11.6161 32.4602 10.2601C32.4602 8.90414 31.3562 7.80014 30.0002 7.80014Z" fill="white"/>
<path d="M53.1547 46.7034H38.7188V45.8034C38.7188 41.6334 42.1567 38.2734 46.3867 38.2734C50.6167 38.2734 54.0547 41.6334 54.0547 45.7614V46.6614L53.1547 46.7034ZM40.5848 44.9034H52.1888C51.7628 42.1794 49.3207 40.0734 46.3867 40.0734C43.4527 40.0734 41.0168 42.1734 40.5848 44.9034Z" fill="white"/>
<path d="M46.387 37.3677C44.041 37.3677 42.127 35.4597 42.127 33.1077C42.127 30.7557 44.035 28.8477 46.387 28.8477C48.739 28.8477 50.647 30.7557 50.647 33.1077C50.647 35.4597 48.739 37.3677 46.387 37.3677ZM46.387 30.6537C45.031 30.6537 43.927 31.7577 43.927 33.1137C43.927 34.4697 45.031 35.5737 46.387 35.5737C47.743 35.5737 48.847 34.4697 48.847 33.1137C48.847 31.7577 47.743 30.6537 46.387 30.6537Z" fill="white"/>
<path d="M20.4907 46.7034H6.05469V45.8034C6.05469 41.6334 9.49269 38.2734 13.7227 38.2734C17.9527 38.2734 21.3907 41.6334 21.3907 45.7614V45.8274L21.3607 46.6974H20.4907V46.7034ZM7.92069 44.9094H19.5247C19.0987 42.1854 16.6627 40.0794 13.7227 40.0794C10.7827 40.0794 8.35269 42.1794 7.92069 44.9094Z" fill="white"/>
<path d="M13.7229 37.3677C11.3769 37.3677 9.46289 35.4597 9.46289 33.1077C9.46289 30.7557 11.3709 28.8477 13.7229 28.8477C16.0749 28.8477 17.9829 30.7557 17.9829 33.1077C17.9829 35.4597 16.0749 37.3677 13.7229 37.3677ZM13.7229 30.6537C12.3669 30.6537 11.2629 31.7577 11.2629 33.1137C11.2629 34.4697 12.3669 35.5737 13.7229 35.5737C15.0789 35.5737 16.1829 34.4697 16.1829 33.1137C16.1829 31.7577 15.0789 30.6537 13.7229 30.6537Z" fill="white"/>
<path d="M30.012 54.2994C25.86 54.2994 21.882 53.0394 18.498 50.6634L19.536 49.1934C22.614 51.3594 26.238 52.5054 30.018 52.5054C33.798 52.5054 37.374 51.3774 40.44 49.2354L41.472 50.7114C38.106 53.0634 34.146 54.3054 30.018 54.3054L30.012 54.2994Z" fill="white"/>
<path d="M47.3042 25.9387C46.4402 23.3707 44.9822 20.9827 43.0802 19.0267C41.5562 17.4607 39.7922 16.1947 37.8242 15.2647L38.5982 13.6387C40.7582 14.6647 42.6962 16.0567 44.3702 17.7727C46.4582 19.9147 48.0602 22.5427 49.0082 25.3687L47.3042 25.9387Z" fill="white"/>
<path d="M13.0431 25.0552L11.3691 24.3952C13.1211 19.9552 16.4091 16.2772 20.6331 14.0332L21.4791 15.6232C17.6331 17.6632 14.6391 21.0172 13.0491 25.0552H13.0431Z" fill="white"/>
<path d="M22.301 35.184L20.873 29.166H22.325L22.781 31.638C22.913 32.364 23.039 33.138 23.141 33.744H23.159C23.255 33.09 23.399 32.37 23.549 31.62L24.059 29.166H25.505L25.985 31.704C26.117 32.412 26.219 33.054 26.309 33.72H26.327C26.417 33.048 26.549 32.346 26.675 31.62L27.167 29.166H28.553L26.999 35.184H25.523L25.013 32.598C24.899 31.992 24.797 31.428 24.725 30.744H24.707C24.599 31.422 24.503 31.992 24.359 32.598L23.789 35.184H22.301Z" fill="white"/>
<path d="M32.8317 32.64H30.6177V34.068H33.0897V35.184H29.2617V29.166H32.9637V30.282H30.6177V31.53H32.8317V32.634V32.64Z" fill="white"/>
<path d="M34.0195 29.249C34.3795 29.189 35.0935 29.123 35.7775 29.123C36.6055 29.123 37.1155 29.201 37.5655 29.465C37.9855 29.687 38.2795 30.101 38.2795 30.653C38.2795 31.205 37.9675 31.673 37.2895 31.931V31.949C37.9795 32.129 38.4835 32.657 38.4835 33.419C38.4835 33.971 38.2315 34.403 37.8595 34.703C37.4215 35.051 36.6895 35.249 35.4955 35.249C34.8235 35.249 34.3255 35.207 34.0255 35.159V29.249H34.0195ZM35.3695 31.553H35.8135C36.5395 31.553 36.9115 31.259 36.9115 30.815C36.9115 30.371 36.5635 30.119 35.9455 30.119C35.6395 30.119 35.4715 30.137 35.3635 30.155V31.559L35.3695 31.553ZM35.3695 34.223C35.5015 34.241 35.6635 34.241 35.8975 34.241C36.5155 34.241 37.0555 34.001 37.0555 33.365C37.0555 32.765 36.5095 32.525 35.8315 32.525H35.3695V34.223Z" fill="white"/>
<path d="M28.817 42.0349C29.057 42.1669 29.609 42.3949 30.167 42.3949C30.875 42.3949 31.229 42.0529 31.229 41.6269C31.229 41.0449 30.659 40.7869 30.059 40.7869H29.507V39.8149H30.041C30.497 39.8149 31.067 39.6349 31.067 39.1429C31.067 38.7949 30.791 38.5369 30.209 38.5369C29.735 38.5369 29.237 38.7409 29.003 38.8849L28.727 37.9009C29.075 37.6789 29.765 37.4629 30.521 37.4629C31.751 37.4629 32.441 38.1169 32.441 38.9089C32.441 39.5269 32.093 40.0129 31.379 40.2589V40.2769C32.075 40.4029 32.639 40.9309 32.639 41.6989C32.639 42.7189 31.739 43.4689 30.263 43.4689C29.513 43.4689 28.877 43.2709 28.541 43.0669L28.817 42.0409V42.0349Z" fill="white"/>
<path d="M35.7305 12.7207L39.1625 18.4747L42.1085 13.3447L35.7305 12.7207Z" fill="white"/>
<path d="M10.0625 27.2882L15.8105 23.8622L10.6865 20.9102L10.0625 27.2882Z" fill="white"/>
<path d="M43.8248 48.4746L37.1348 48.8646L40.3268 53.8446L43.8248 48.4746Z" fill="white"/>
</svg>
