<svg width="60" height="63" viewBox="0 0 60 63" fill="none" xmlns="http://www.w3.org/2000/svg">
<g filter="url(#filter0_d_1647_675)">
<path d="M22.1097 45.8948L21.4437 45.1628C20.5137 44.1368 12.3477 35.0228 12.3477 30.3608C12.3477 26.7188 15.2457 24.9848 17.2797 24.4148V9.12678L22.1997 8.55078L26.9397 9.12678V24.4208C28.9737 24.9908 31.8717 26.7248 31.8717 30.3668C31.8717 35.0288 23.7057 44.1488 22.7757 45.1688L22.1097 45.9008V45.8948ZM19.0797 10.7168V25.9088L18.3177 26.0288C18.1497 26.0588 14.1477 26.7488 14.1477 30.3608C14.1477 33.4448 19.3917 40.0928 22.1097 43.2068C24.8277 40.0928 30.0717 33.4448 30.0717 30.3608C30.0717 26.7488 26.0697 26.0528 25.8957 26.0288L25.1397 25.9028V10.7168L22.1097 10.3448L19.0797 10.7168Z" fill="white"/>
<path d="M22.1093 36.5526C19.8113 36.5526 17.9453 34.6866 17.9453 32.3886C17.9453 30.0906 19.8113 28.2246 22.1093 28.2246C24.4073 28.2246 26.2733 30.0906 26.2733 32.3886C26.2733 34.6866 24.4073 36.5526 22.1093 36.5526ZM22.1093 30.0246C20.8073 30.0246 19.7453 31.0866 19.7453 32.3886C19.7453 33.6906 20.8073 34.7526 22.1093 34.7526C23.4113 34.7526 24.4733 33.6906 24.4733 32.3886C24.4733 31.0866 23.4113 30.0246 22.1093 30.0246Z" fill="white"/>
<path d="M23.0109 35.6523H21.2109V44.5563H23.0109V35.6523Z" fill="white"/>
<path d="M40.8009 25.8129H34.9269L34.6809 25.6209C32.0649 23.5809 30.7449 21.5949 30.6609 19.5429C30.5829 17.7309 31.4889 15.9369 33.3489 14.2029C35.5509 12.1569 34.0449 10.2429 33.8709 10.0269L32.6409 8.56892L34.5429 8.54492C34.5849 8.54492 34.6329 8.54492 34.6749 8.54492C39.1209 8.54492 42.3009 11.1009 43.6389 15.7569C44.2389 17.8509 43.9869 20.0529 42.9309 21.9549L40.7949 25.8129H40.8009ZM35.5509 24.0129H39.7389L41.3589 21.0849C42.1809 19.6029 42.3789 17.8869 41.9109 16.2549C40.9389 12.8709 38.9949 10.9269 36.1209 10.4589C36.5769 11.8569 36.4869 13.7529 34.5789 15.5229C33.1209 16.8789 32.4069 18.2109 32.4609 19.4709C32.5209 20.9049 33.5349 22.3929 35.5509 24.0129Z" fill="white"/>
<path d="M37.3073 46.452C33.5213 46.452 32.5253 45.972 32.1953 45.252C32.0693 44.982 32.0573 44.682 32.1533 44.418L34.3433 24.582L36.1313 24.78L33.9653 44.4C34.3733 44.508 35.2973 44.652 37.3073 44.652C39.5993 44.652 40.7213 44.544 41.2493 44.46L39.3713 24.768L41.1653 24.6L43.0973 44.898L43.1873 45.258L42.8993 45.642C42.6293 45.984 42.2633 46.458 37.3013 46.458L37.3073 46.452ZM41.3153 45.108C41.3153 45.108 41.3153 45.138 41.3153 45.156V45.108Z" fill="white"/>
<path d="M38.4362 18.8226L36.7442 18.2046C38.7782 12.6666 34.3442 10.3506 34.1582 10.2546L34.9562 8.64062C35.0162 8.67063 41.0342 11.7426 38.4362 18.8226Z" fill="white"/>
<path d="M19.0494 19.1634H10.1094V12.1074H11.9094V17.3634H19.0494V19.1634Z" fill="white"/>
<path d="M11.0104 13.8412C9.01844 13.8412 7.39844 12.2212 7.39844 10.2292C7.39844 8.23719 9.01844 6.61719 11.0104 6.61719C13.0024 6.61719 14.6224 8.23719 14.6224 10.2292C14.6224 12.2212 13.0024 13.8412 11.0104 13.8412ZM11.0104 8.41719C10.0084 8.41719 9.19844 9.23319 9.19844 10.2292C9.19844 11.2252 10.0144 12.0412 11.0104 12.0412C12.0064 12.0412 12.8224 11.2252 12.8224 10.2292C12.8224 9.23319 12.0064 8.41719 11.0104 8.41719Z" fill="white"/>
<path d="M41.988 54.1322C40.434 54.1322 39.168 52.8662 39.168 51.3122C39.168 49.7582 40.434 48.4922 41.988 48.4922C43.542 48.4922 44.808 49.7582 44.808 51.3122C44.808 52.8662 43.542 54.1322 41.988 54.1322ZM41.988 50.2982C41.424 50.2982 40.968 50.7542 40.968 51.3182C40.968 51.8822 41.424 52.3382 41.988 52.3382C42.552 52.3382 43.008 51.8822 43.008 51.3182C43.008 50.7542 42.552 50.2982 41.988 50.2982Z" fill="white"/>
<path d="M10.3977 45.3968H8.59766V38.8988L13.6257 33.2168L14.9757 34.4048L10.3977 39.5768V45.3968Z" fill="white"/>
<path d="M9.49872 50.8861C7.50672 50.8861 5.88672 49.2661 5.88672 47.2741C5.88672 45.2821 7.50672 43.6621 9.49872 43.6621C11.4907 43.6621 13.1107 45.2821 13.1107 47.2741C13.1107 49.2661 11.4907 50.8861 9.49872 50.8861ZM9.49872 45.4621C8.49672 45.4621 7.68672 46.2781 7.68672 47.2741C7.68672 48.2701 8.50272 49.0861 9.49872 49.0861C10.4947 49.0861 11.3107 48.2701 11.3107 47.2741C11.3107 46.2781 10.4947 45.4621 9.49872 45.4621Z" fill="white"/>
<path d="M51.4204 30.8994H40.0684V29.0994H49.6204V16.6914H51.4204V30.8994Z" fill="white"/>
<path d="M50.5202 17.5912C48.5282 17.5912 46.9082 15.9712 46.9082 13.9792C46.9082 11.9872 48.5282 10.3672 50.5202 10.3672C52.5122 10.3672 54.1322 11.9872 54.1322 13.9792C54.1322 15.9712 52.5122 17.5912 50.5202 17.5912ZM50.5202 12.1672C49.5182 12.1672 48.7082 12.9832 48.7082 13.9792C48.7082 14.9752 49.5242 15.7912 50.5202 15.7912C51.5162 15.7912 52.3322 14.9752 52.3322 13.9792C52.3322 12.9832 51.5162 12.1672 50.5202 12.1672Z" fill="white"/>
<path d="M51.4208 41.5208H49.6208V36.2648H40.8848V34.4648H51.4208V41.5208Z" fill="white"/>
<path d="M50.5202 47.017C48.5282 47.017 46.9082 45.397 46.9082 43.405C46.9082 41.413 48.5282 39.793 50.5202 39.793C52.5122 39.793 54.1322 41.413 54.1322 43.405C54.1322 45.397 52.5122 47.017 50.5202 47.017ZM50.5202 41.593C49.5182 41.593 48.7082 42.409 48.7082 43.405C48.7082 44.401 49.5242 45.217 50.5202 45.217C51.5162 45.217 52.3322 44.401 52.3322 43.405C52.3322 42.409 51.5162 41.593 50.5202 41.593Z" fill="white"/>
<path d="M40.0672 52.2185H33.2812V45.3965H35.0812V50.4185H40.0672V52.2185Z" fill="white"/>
<path d="M18.3356 54.3002C16.7816 54.3002 15.5156 53.0342 15.5156 51.4802C15.5156 49.9262 16.7816 48.6602 18.3356 48.6602C19.8896 48.6602 21.1556 49.9262 21.1556 51.4802C21.1556 53.0342 19.8896 54.3002 18.3356 54.3002ZM18.3356 50.4602C17.7716 50.4602 17.3156 50.9162 17.3156 51.4802C17.3156 52.0442 17.7716 52.5002 18.3356 52.5002C18.8996 52.5002 19.3556 52.0442 19.3556 51.4802C19.3556 50.9162 18.8996 50.4602 18.3356 50.4602Z" fill="white"/>
<path d="M27.042 52.38H20.25V50.58H25.242V39.666H27.042V52.38Z" fill="white"/>
</g>
<defs>
<filter id="filter0_d_1647_675" x="-4" y="0" width="68" height="68" filterUnits="userSpaceOnUse" color-interpolation-filters="sRGB">
<feFlood flood-opacity="0" result="BackgroundImageFix"/>
<feColorMatrix in="SourceAlpha" type="matrix" values="0 0 0 0 0 0 0 0 0 0 0 0 0 0 0 0 0 0 127 0" result="hardAlpha"/>
<feOffset dy="4"/>
<feGaussianBlur stdDeviation="2"/>
<feComposite in2="hardAlpha" operator="out"/>
<feColorMatrix type="matrix" values="0 0 0 0 0 0 0 0 0 0 0 0 0 0 0 0 0 0 0.25 0"/>
<feBlend mode="normal" in2="BackgroundImageFix" result="effect1_dropShadow_1647_675"/>
<feBlend mode="normal" in="SourceGraphic" in2="effect1_dropShadow_1647_675" result="shape"/>
</filter>
</defs>
</svg>
