<svg width="60" height="60" viewBox="0 0 60 60" fill="none" xmlns="http://www.w3.org/2000/svg">
<path d="M25.8179 20.9462C22.6079 20.9462 19.6319 18.8582 18.6599 15.6242C17.4719 11.6762 19.7159 7.5002 23.6579 6.3122C27.6059 5.1242 31.7819 7.3682 32.9699 11.3102C34.1579 15.2582 31.9139 19.4342 27.9719 20.6222C27.2579 20.8382 26.5319 20.9402 25.8179 20.9402V20.9462ZM25.8119 7.7942C25.2719 7.7942 24.7199 7.8722 24.1799 8.0342C21.1859 8.9342 19.4819 12.1082 20.3819 15.1022C21.2819 18.0962 24.4559 19.8002 27.4499 18.9002C30.4439 18.0002 32.1479 14.8262 31.2479 11.8322C30.5099 9.3782 28.2479 7.7942 25.8119 7.7942Z" fill="white"/>
<path d="M27.0412 26.2016C24.1432 26.2016 21.3292 24.7556 19.6912 22.2536C19.4212 21.8396 19.5352 21.2816 19.9492 21.0056C20.3632 20.7356 20.9212 20.8496 21.1972 21.2636C22.8712 23.8196 26.0872 24.9896 29.0152 24.1076C31.9792 23.2136 34.0132 20.4356 33.9592 17.3456C33.9532 16.8476 34.3492 16.4396 34.8472 16.4336C35.3512 16.4456 35.7532 16.8236 35.7592 17.3216C35.8252 21.2156 33.2632 24.7136 29.5312 25.8416C28.7092 26.0876 27.8692 26.2076 27.0352 26.2076L27.0412 26.2016Z" fill="white"/>
<path d="M27.1377 30.8818C26.1177 30.8818 25.1337 30.8758 24.1977 30.8638C22.4877 30.8458 20.4237 28.2418 20.0877 27.7318C19.8177 27.3178 19.9317 26.7598 20.3457 26.4838C20.7597 26.2138 21.3177 26.3278 21.5937 26.7418C22.2357 27.7258 23.7297 29.0458 24.2157 29.0578C27.0477 29.0878 30.3717 29.0998 33.5277 28.9258C35.9637 28.7878 38.3757 24.8338 38.3337 22.0858C38.3277 21.5878 38.7237 21.1798 39.2217 21.1738C39.7197 21.1858 40.1277 21.5638 40.1337 22.0618C40.1937 25.7158 37.1457 30.5338 33.6297 30.7258C31.4697 30.8458 29.2377 30.8818 27.1377 30.8818Z" fill="white"/>
<path d="M42.1743 54.2995H17.8263C15.0663 54.2995 12.8223 52.0555 12.8223 49.2955V34.1095C12.8223 31.3495 15.0663 29.1055 17.8263 29.1055H42.1683C44.9283 29.1055 47.1723 31.3495 47.1723 34.1095V49.2955C47.1723 52.0555 44.9283 54.2995 42.1683 54.2995H42.1743ZM17.8263 30.8995C16.0563 30.8995 14.6223 32.3395 14.6223 34.1035V49.2895C14.6223 51.0595 16.0623 52.4935 17.8263 52.4935H42.1683C43.9383 52.4935 45.3723 51.0535 45.3723 49.2895V34.1035C45.3723 32.3335 43.9323 30.8995 42.1683 30.8995H17.8263Z" fill="white"/>
<path d="M33.5765 50.3636H26.4245C24.1565 50.3636 22.3145 48.5216 22.3145 46.2536V29.0996H37.6805V46.2536C37.6805 48.5216 35.8385 50.3636 33.5705 50.3636H33.5765ZM24.1205 30.8996V46.2536C24.1205 47.5256 25.1585 48.5636 26.4305 48.5636H33.5825C34.8545 48.5636 35.8925 47.5256 35.8925 46.2536V30.8996H24.1265H24.1205Z" fill="white"/>
<path d="M30.0009 46.3436C28.0929 46.3436 26.5449 44.7956 26.5449 42.8876C26.5449 40.9796 28.0929 39.4316 30.0009 39.4316C31.9089 39.4316 33.4569 40.9796 33.4569 42.8876C33.4569 44.7956 31.9089 46.3436 30.0009 46.3436ZM30.0009 41.2316C29.0889 41.2316 28.3449 41.9756 28.3449 42.8876C28.3449 43.7996 29.0889 44.5436 30.0009 44.5436C30.9129 44.5436 31.6569 43.7996 31.6569 42.8876C31.6569 41.9756 30.9129 41.2316 30.0009 41.2316Z" fill="white"/>
</svg>
